<svg width="24" height="24" viewBox="0 0 24 24" fill="none" xmlns="http://www.w3.org/2000/svg">
<path d="M22.8842 12.5919C22.9505 12.5165 22.9505 12.4035 22.8842 12.3281L20.6168 9.74466C20.5805 9.70338 20.5629 9.64902 20.5679 9.59433L20.8839 6.17459C20.8931 6.07468 20.8269 5.98339 20.729 5.96116L17.3737 5.19902C17.3203 5.18688 17.2741 5.15331 17.2461 5.10617L15.4896 2.15081C15.4383 2.06452 15.331 2.02961 15.2388 2.06922L12.0789 3.42611C12.0285 3.44775 11.9715 3.44775 11.9211 3.42611L8.76121 2.06922C8.66897 2.02961 8.56165 2.06452 8.51037 2.15081L6.75404 5.10591C6.72593 5.1532 6.67958 5.18683 6.6259 5.19887L3.27154 5.95151C3.17344 5.97352 3.10692 6.06494 3.11617 6.16506L3.4321 9.58454C3.43715 9.63911 3.41958 9.69335 3.3835 9.7346L1.11535 12.3281C1.04933 12.4036 1.04943 12.5163 1.11559 12.5917L3.38327 15.1754C3.41949 15.2166 3.43715 15.271 3.43211 15.3256L3.11608 18.7554C3.10688 18.8553 3.17311 18.9466 3.27094 18.9688L6.62625 19.731C6.67972 19.7431 6.72586 19.7767 6.75388 19.8238L8.51014 22.7788C8.56153 22.8653 8.66912 22.9001 8.76144 22.8602L11.9209 21.4942C11.9714 21.4724 12.0286 21.4723 12.0792 21.494L15.2388 22.8508C15.331 22.8904 15.4383 22.8555 15.4896 22.7692L17.2461 19.8138C17.2741 19.7667 17.3203 19.7331 17.3737 19.721L20.729 18.9588C20.8269 18.9366 20.8931 18.8453 20.8839 18.7454L20.5679 15.3257C20.5629 15.271 20.5805 15.2166 20.6168 15.1753L22.8842 12.5919ZM13 17.26C13 17.3705 12.9105 17.46 12.8 17.46H11.2C11.0895 17.46 11 17.3705 11 17.26V15.66C11 15.5495 11.0895 15.46 11.2 15.46H12.8C12.9105 15.46 13 15.5495 13 15.66V17.26ZM13 13.26C13 13.3705 12.9105 13.46 12.8 13.46H11.2C11.0895 13.46 11 13.3705 11 13.26V7.66C11 7.54954 11.0895 7.46 11.2 7.46H12.8C12.9105 7.46 13 7.54954 13 7.66V13.26Z" fill="#002b45"/>
</svg>
