<!-- Generated by IcoMoon.io -->
<svg version="1.1" xmlns="http://www.w3.org/2000/svg" width="40" height="32" viewBox="0 0 40 32">
<title>MA</title>
<path fill="#d80027" d="M0 0.028v31.972h48v-31.972z"></path>
<path fill="#20661b" d="M33.666 13.932h-6.858l-2.124-6.522-2.124 6.522h-6.858l5.549 4.033-2.124 6.522 5.549-4.033 5.549 4.033-2.105-6.522 5.549-4.033zM22.802 17.46l0.72-2.208h2.32l0.72 2.208-1.881 1.366-1.881-1.366zM25.413 13.932h-1.46l0.73-2.246 0.73 2.246zM27.687 16.646l-0.449-1.394h2.367l-1.918 1.394zM22.138 15.251l-0.449 1.394-1.918-1.394h2.367zM21.642 21.034l0.73-2.246 1.179 0.861-1.909 1.385zM25.806 19.64l1.179-0.861 0.73 2.246-1.909-1.385z"></path>
</svg>